<?xml version="1.0" encoding="UTF-8"?>
<!-- Created with Inkscape (http://www.inkscape.org/) -->
<svg width="91.919mm" height="91.919mm" version="1.1" viewBox="0 0 91.919 91.919" xml:space="preserve" xmlns="http://www.w3.org/2000/svg"><g transform="translate(-23.708 -36.774)"><path transform="matrix(2.0175 -1.0175 .88325 1.3091 -126.45 60.268)" d="m70.601 58.976c-0.42773 0.75929-0.23032 0.90608 0.40496 0.30117s1.7084-1.9615 2.1361-2.7208c0.42773-0.75929 0.21007-0.92127-0.42521-0.31636s-1.6881 1.9767-2.1159 2.736z" fill="#502d16" stroke-width=".26458"/><path d="m49.685 64.699a15.368 15.368 0 0 0-15.368 15.368 15.368 15.368 0 0 0 9.4434 14.15 13.764 13.764 0 0 0-1.3203 5.8575 13.764 13.764 0 0 0 13.764 13.764 13.764 13.764 0 0 0 0.41754-0.03 13.764 13.764 0 0 0-0.0801 1.1198 13.764 13.764 0 0 0 13.764 13.764 13.764 13.764 0 0 0 13.764-13.764 13.764 13.764 0 0 0-0.25632-2.636 13.764 13.764 0 0 0 11.12-13.475 13.764 13.764 0 0 0-1.5208-6.2813 13.764 13.764 0 0 0 11.605-13.58 13.764 13.764 0 0 0-13.764-13.764 13.764 13.764 0 0 0-10.282 4.6302 15.368 15.368 0 0 0-11.165-4.8147 15.368 15.368 0 0 0-9.8728 3.6106 15.368 15.368 0 0 0-10.25-3.9197z" fill="#d80544" stroke-width=".23695"/><path transform="matrix(.88185 .29557 -.26721 1.0332 6.1071 -29.735)" d="m102.29 42.003c-2.8947 1.2134-4.609 2.5158-6.2653 4.1915-1.6563 1.6756-3.2545 3.7244-4.144 6.3101s-1.0703 5.7083-0.91729 7.2983c0.153 1.5899 0.63979 1.6472 2.2229 1.7903s4.2624 0.37198 6.9166 0.12867 5.283-0.9588 7.3786-2.1418c2.0955-1.183 3.6575-2.8333 4.8103-4.6971s1.8965-3.941 2.3969-5.7537c0.50046-1.8127 0.75773-3.3608 1.0371-4.6654 0.27934-1.3046 0.58075-2.3657 0.85743-3.277s0.52862-1.6728 0.91657-2.3913c0.38796-0.71853 0.91192-1.3941 0.81978-1.4583-0.0921-0.06424-0.8004 0.48287-1.5301 0.8868-0.72973 0.40394-1.4809 0.6647-2.6161 0.84702s-2.6543 0.28618-4.9858 0.77181-4.0028 0.94673-6.8974 2.1601z" fill="#008000" stroke-width=".26458"/><path transform="matrix(-.15126 -1.0869 1.1717 -.20294 11.773 172.97)" d="m102.29 42.003c-2.8947 1.2134-4.609 2.5158-6.2653 4.1915-1.6563 1.6756-3.2545 3.7244-4.144 6.3101s-1.0703 5.7083-0.91729 7.2983c0.153 1.5899 0.63979 1.6472 2.2229 1.7903s4.2624 0.37198 6.9166 0.12867 5.283-0.9588 7.3786-2.1418c2.0955-1.183 3.6575-2.8333 4.8103-4.6971s1.8965-3.941 2.3969-5.7537c0.50046-1.8127 0.75773-3.3608 1.0371-4.6654 0.27934-1.3046 0.58075-2.3657 0.85743-3.277s0.52862-1.6728 0.91657-2.3913c0.38796-0.71853 0.91192-1.3941 0.81978-1.4583-0.0921-0.06424-0.8004 0.48287-1.5301 0.8868-0.72973 0.40394-1.4809 0.6647-2.6161 0.84702s-2.6543 0.28618-4.9858 0.77181-4.0028 0.94673-6.8974 2.1601z" fill="#008000" stroke-width=".26458"/></g></svg>